<svg xmlns="http://www.w3.org/2000/svg" xmlns:xlink="http://www.w3.org/1999/xlink" xml:space="preserve" version="1.1" style="shape-rendering:geometricPrecision;text-rendering:geometricPrecision;image-rendering:optimizeQuality;" viewBox="0 0 362 825" x="0px" y="0px" fill-rule="evenodd" clip-rule="evenodd"><defs><style type="text/css">
   
    .fil0 {fill:black}
   
  </style></defs><g><path class="fil0" d="M352 9c-12,-12 -32,-12 -44,0l-299 299c-5,5 -8,13 -9,21l0 0 0 0 0 0 0 1 0 0 0 1 0 0 0 1 0 0c1,8 4,15 9,20l299 299c12,12 32,12 44,0 13,-12 13,-32 0,-45l-276 -276 276 -276c13,-12 13,-33 0,-45z"/></g><text x="0" y="675" fill="#000000" font-size="5px" font-weight="bold" font-family="'Helvetica Neue', Helvetica, Arial-Unicode, Arial, Sans-serif">Created by QOLBIN SALIIM</text><text x="0" y="680" fill="#000000" font-size="5px" font-weight="bold" font-family="'Helvetica Neue', Helvetica, Arial-Unicode, Arial, Sans-serif">from the Noun Project</text></svg>