<svg xmlns="http://www.w3.org/2000/svg" viewBox="0 0 64 80" fill="none" x="0px" y="0px"><path fill-rule="evenodd" clip-rule="evenodd" d="M47.9118 7.88588C53.2209 9.87528 57 14.9963 57 21V48C57 55.732 50.732 62 43 62H21C13.268 62 7 55.732 7 48V21C7 14.9963 10.7791 9.87528 16.0882 7.88588C16.6218 4.5494 19.5132 2 23 2H41C44.4868 2 47.3782 4.5494 47.9118 7.88588ZM16.6666 11.9851C13.3138 13.5997 11 17.0297 11 21V48C11 53.5228 15.4772 58 21 58H43C48.5228 58 53 53.5228 53 48V21C53 17.0297 50.6862 13.5997 47.3334 11.9851C46.213 14.3581 43.7982 16 41 16H23C20.2018 16 17.787 14.3581 16.6666 11.9851ZM20 9C20 7.34315 21.3431 6 23 6H41C42.6569 6 44 7.34315 44 9C44 10.6569 42.6569 12 41 12H23C21.3431 12 20 10.6569 20 9Z" fill="black"/><text x="0" y="79" fill="#000000" font-size="5px" font-weight="bold" font-family="'Helvetica Neue', Helvetica, Arial-Unicode, Arial, Sans-serif">Created by HideMaru</text><text x="0" y="84" fill="#000000" font-size="5px" font-weight="bold" font-family="'Helvetica Neue', Helvetica, Arial-Unicode, Arial, Sans-serif">from the Noun Project</text></svg>