<svg xmlns="http://www.w3.org/2000/svg" viewBox="0 0 64.92 64.92"><defs><style>.cls-1{fill:#fff;}</style></defs><g id="Calque_2" data-name="Calque 2"><g id="header"><circle class="cls-1" cx="32.46" cy="32.46" r="32.46"/><path d="M19.11,49.64H45.84a3.83,3.83,0,0,0,3.83-3.83V19.08a3.82,3.82,0,0,0-3.83-3.82H19.11a3.82,3.82,0,0,0-3.82,3.82V45.81A3.82,3.82,0,0,0,19.11,49.64Z"/><path class="cls-1" d="M39.8,44.86V36.2a4.66,4.66,0,0,0-.7-2.76,2.47,2.47,0,0,0-2.12-1,2.9,2.9,0,0,0-2.35,1,4.24,4.24,0,0,0-.79,2.74v8.62H29V28.32h4.87v2.31l0-.08a5.39,5.39,0,0,1,1.17-1.37,6.27,6.27,0,0,1,8.11.26,6.83,6.83,0,0,1,1.69,4.95V44.87H39.8Zm-19.27,0V28.32h5.11v16.5Zm2.55-18.68a3,3,0,1,1,3-3A3,3,0,0,1,23.08,26.14Z"/><path class="cls-1" d="M23.08,20.1a3,3,0,1,1-3,3,3,3,0,0,1,3-3m15.75,7.77a5.83,5.83,0,0,1,4.29,1.61,5.38,5.38,0,0,1,1.24,2,8.76,8.76,0,0,1,.44,2.88V44.82h-5V36.19a4.69,4.69,0,0,0-.7-2.78,2.5,2.5,0,0,0-2.14-1,2.9,2.9,0,0,0-2.37,1,4.26,4.26,0,0,0-.8,2.76v8.63H29V28.37h4.77v2.37l.09-.17a5.33,5.33,0,0,1,1.17-1.35,5.6,5.6,0,0,1,1.53-.93,6,6,0,0,1,2.24-.42m-13.18.5V44.82H20.58V28.37h5.06m-2.56-8.32a3.06,3.06,0,1,0,3,3.05,3,3,0,0,0-3-3.05Zm15.75,7.77a5.78,5.78,0,0,0-5,2.74V28.32H28.93V44.87h4.91V36.19c0-2.33,1.07-3.71,3.12-3.71,1.88,0,2.79,1.33,2.79,3.71v8.68h5.1V34.4c0-4.44-2.51-6.58-6-6.58Zm-13.15.5H20.53V44.87h5.15V28.32Z"/></g></g></svg>