<?xml version="1.0" encoding="utf-8"?>
<!-- Generator: Adobe Illustrator 27.6.1, SVG Export Plug-In . SVG Version: 6.00 Build 0)  -->
<svg version="1.1" id="Calque_1" xmlns="http://www.w3.org/2000/svg" xmlns:xlink="http://www.w3.org/1999/xlink" x="0px" y="0px"
	 viewBox="0 0 1600 1600" style="enable-background:new 0 0 1600 1600;" xml:space="preserve">
<style type="text/css">
	.st0{fill-rule:evenodd;clip-rule:evenodd;}
	.st1{fill:#FFFFFF;}
</style>
<circle class="st0" cx="817" cy="799.8" r="680.8"/>
<g>
	<g>
		<g>
			<path class="st1" d="M536.8,1160.1h560.4c44.2,0,80.1-35.8,80.1-80.1V519.6c0-44.2-35.8-80.1-80.1-80.1H536.8
				c-44.2,0-80.1,35.8-80.1,80.1v560.4C456.7,1124.3,492.6,1160.1,536.8,1160.1z"/>
		</g>
	</g>
	<g>
		<path d="M970.8,1059.5V877.9c0-25.3-4.9-44.8-14.5-57.9c-9.9-13.5-24.9-20.4-44.5-20.4c-21.3,0-37.9,7-49.2,20.8
			c-11.1,13.5-16.7,32.8-16.7,57.5v181.6h-102V713.6h102v48.2l0.9-1.7c0.1-0.1,7.9-14.4,24.6-28.5c15.4-13,41.7-28.5,79.6-28.5
			c37.4,0,68.6,11.7,90.4,33.9c23.5,24,35.4,58.8,35.4,103.4v219.2H970.8z M567.6,1059.5V713.6h106.5v345.9H567.6z M620.3,667.2
			c-34.8,0-63-28.5-63-63.5s28.3-63.5,63-63.5c34.8,0,63,28.5,63,63.5S655.1,667.2,620.3,667.2z"/>
		<path class="st1" d="M620.3,540.6c34.5,0,62.5,28.3,62.5,63c0,34.8-28,63-62.5,63c-34.5,0-62.5-28.3-62.5-63
			C557.8,568.9,585.8,540.6,620.3,540.6 M950.9,703.5c37.3,0,68.4,11.7,90,33.8c11.3,11.5,20,25.9,25.9,42.7
			c6.2,17.6,9.3,37.9,9.3,60.4V1059H971.3V877.9c0-25.4-4.9-45-14.6-58.2c-10-13.7-25.1-20.6-44.9-20.6c-21.5,0-38.2,7.1-49.6,21
			c-11.2,13.6-16.8,33-16.8,57.9V1059h-101V714.1h101v45.7l0,3.9l1.9-3.5c0.1-0.1,7.9-14.4,24.5-28.4c9.8-8.2,20.6-14.8,32.2-19.5
			C918.5,706.5,934.3,703.5,950.9,703.5 M673.6,714.1V1059H568.1V714.1H673.6 M620.3,539.6c-35.1,0-63.5,28.7-63.5,64
			c0,35.4,28.4,64,63.5,64c35.1,0,63.5-28.7,63.5-64C683.9,568.3,655.4,539.6,620.3,539.6L620.3,539.6z M950.9,702.5
			c-73.6,0-104.6,57.3-104.6,57.3v-46.7h-103V1060h103V877.9c0-48.8,22.5-77.8,65.5-77.8c39.5,0,58.5,27.9,58.5,77.8V1060h106.9
			V840.4C1077.2,747.4,1024.5,702.5,950.9,702.5L950.9,702.5z M674.6,713.1H567.1V1060h107.5V713.1L674.6,713.1z"/>
	</g>
</g>
</svg>
