<svg xmlns="http://www.w3.org/2000/svg" viewBox="0 0 22 26.4"><defs><style>.cls-1{fill:#fff;fill-rule:evenodd;}</style></defs><g id="Calque_2" data-name="Calque 2"><g id="header"><path class="cls-1" d="M18,2.59a6.16,6.16,0,0,1,4,5.77V20.24a6.16,6.16,0,0,1-6.16,6.16H6.16A6.16,6.16,0,0,1,0,20.24V8.36A6.16,6.16,0,0,1,4,2.59,3.08,3.08,0,0,1,7,0H15A3.08,3.08,0,0,1,18,2.59ZM4.25,4.39a4.41,4.41,0,0,0-2.49,4V20.24a4.4,4.4,0,0,0,4.4,4.4h9.68a4.4,4.4,0,0,0,4.4-4.4V8.36a4.41,4.41,0,0,0-2.49-4A3.09,3.09,0,0,1,15,6.16H7A3.09,3.09,0,0,1,4.25,4.39ZM5.59,3.08A1.33,1.33,0,0,1,6.91,1.76h7.92a1.32,1.32,0,0,1,0,2.64H6.91A1.33,1.33,0,0,1,5.59,3.08Z"/></g></g></svg>