<svg xmlns="http://www.w3.org/2000/svg" viewBox="0 0 141 141"><defs><style>.cls-1{fill:#fff;}.cls-2{fill-rule:evenodd;}</style></defs><g id="Calque_2" data-name="Calque 2"><g id="Modal"><g id="Calque_2-2" data-name="Calque 2"><g id="Calque_1-2" data-name="Calque 1-2"><path class="cls-1" d="M70.41,140.5A70,70,0,1,1,140.5,70.41,70.08,70.08,0,0,1,70.41,140.5Z"/></g></g><g id="Calque_2-3" data-name="Calque 2"><g id="Calque_1-2-2" data-name="Calque 1-2"><path class="cls-2" d="M70.41,0A70.5,70.5,0,1,1,0,70.41,70.46,70.46,0,0,1,70.41,0ZM48.22,38.79,70.41,61.15,92.78,38.79c6.11-6.12,15.37,3.32,9.26,9.43L79.85,70.41,102,92.78c6.11,6.11-3.15,15.37-9.26,9.26L70.41,79.85,48.22,102c-6.11,6.11-15.55-3.15-9.43-9.26L61.15,70.41,38.79,48.22C32.67,42.11,42.11,32.67,48.22,38.79Z"/></g></g><g id="Calque_2-4" data-name="Calque 2"><g id="Calque_1-2-3" data-name="Calque 1-2"><path class="cls-2" d="M70.41,1A69.31,69.31,0,1,1,21.3,21.3,69.58,69.58,0,0,1,70.41,1m0,58.74L48.93,38.08a7.26,7.26,0,0,0-5.19-2.27,8.27,8.27,0,0,0-7.36,5.13,7.07,7.07,0,0,0,1.7,8L59.74,70.42,38.08,92.07A7,7,0,0,0,36.37,100,8.19,8.19,0,0,0,43.69,105a7.32,7.32,0,0,0,5.24-2.3L70.42,81.26l21.65,21.48a7.29,7.29,0,0,0,5.22,2.3,8.06,8.06,0,0,0,7.19-5,7.08,7.08,0,0,0-1.73-8L81.26,70.42l21.48-21.49a7.13,7.13,0,0,0,1.73-8.06,8.14,8.14,0,0,0-7.23-5.06,7.23,7.23,0,0,0-5.17,2.27L70.42,59.74M70.41,0A70.5,70.5,0,1,0,141,70.41,70.32,70.32,0,0,0,70.41,0Zm0,61.15L92.78,38.79a6.2,6.2,0,0,1,4.46-2c5.08,0,9.52,6.69,4.8,11.41L79.85,70.41,102,92.78c4.7,4.7.31,11.26-4.75,11.26a6.31,6.31,0,0,1-4.51-2L70.41,79.85,48.22,102a6.33,6.33,0,0,1-4.53,2c-5.11,0-9.6-6.56-4.9-11.26L61.15,70.41,38.79,48.22c-4.72-4.72-.18-11.41,5-11.41a6.22,6.22,0,0,1,4.48,2L70.41,61.15Z"/></g></g></g></g></svg>