<svg xmlns="http://www.w3.org/2000/svg" viewBox="0 0 83.21 59.18"><defs><style>.cls-1{fill:#fff;}</style></defs><g id="Calque_2" data-name="Calque 2"><g id="Calque_1-2" data-name="Calque 1"><path class="cls-1" d="M77.74,0H5.47A5.47,5.47,0,0,0,0,5.46v.63L41.61,31.61,83.21,6.17v-.7A5.47,5.47,0,0,0,77.74,0Z"/><path class="cls-1" d="M41.61,40.52a4.13,4.13,0,0,1-2.15-.6L0,15.71v38a5.47,5.47,0,0,0,5.47,5.47H77.74a5.47,5.47,0,0,0,5.47-5.47V15.78L43.74,39.92A4.06,4.06,0,0,1,41.61,40.52Z"/></g></g></svg>