<svg xmlns="http://www.w3.org/2000/svg" viewBox="0 0 26 26"><defs><style>.cls-1{fill:#fff;}</style></defs><g id="Calque_2" data-name="Calque 2"><g id="Calque_1-2" data-name="Calque 1"><path class="cls-1" d="M24.57,23.15a3.54,3.54,0,1,0-1.42,1.42l1.14,1.14a1,1,0,0,0,1.42,0,1,1,0,0,0,0-1.41ZM20,21.5A1.5,1.5,0,1,1,21.5,23,1.5,1.5,0,0,1,20,21.5Z"/><path class="cls-1" d="M16,22a5.93,5.93,0,0,0,1.54,4H1a1,1,0,0,1-1-1,9,9,0,0,1,9-9h8a8.66,8.66,0,0,1,2.75.44A6,6,0,0,0,16,22Z"/><circle class="cls-1" cx="13" cy="7" r="7"/></g></g></svg>